<?xml version="1.0" encoding="utf-8"?>
<!-- Generator: Adobe Illustrator 23.0.2, SVG Export Plug-In . SVG Version: 6.00 Build 0)  -->
<svg version="1.0" id="Main" xmlns="http://www.w3.org/2000/svg" xmlns:xlink="http://www.w3.org/1999/xlink" x="0px" y="0px"
	 width="389px" height="263px" viewBox="0 0 389 263" enable-background="new 0 0 389 263" xml:space="preserve">
<g>
	<defs>
		<rect id="SVGID_1_" y="-0.5" width="389" height="263"/>
	</defs>
	<clipPath id="SVGID_2_">
		<use xlink:href="#SVGID_1_"  overflow="visible"/>
	</clipPath>
	<g clip-path="url(#SVGID_2_)">
		<g>
			<g id="id3">
				<path fill="none" stroke="#00BFC4" stroke-miterlimit="10" d="M64.7,284.8l35.9-21.4l36.5,20.3l0.6,41.8l-35.9,21.4l-36.5-20.3
					L64.7,284.8z M172.1,220.4L208,199l36.5,20.3l0.6,41.7l-35.9,21.4l-36.5-20.3L172.1,220.4z M279.7,156.1l35.9-21.4l36.5,20.3
					l0.6,41.7l-35.9,21.4l-36.5-20.3L279.7,156.1z M387.9,133.6L352.1,155l-36.5-20.3l-0.6-41.8l35.9-21.4l36.5,20.4L387.9,133.6z
					 M280.3,197.9l-35.9,21.4L208,199l-0.6-41.8l35.9-21.4l36.5,20.3L280.3,197.9z M172.8,262.2l-35.9,21.4l-36.5-20.3l-0.6-41.8
					l35.9-21.4l36.5,20.3L172.8,262.2z M27.4,222.6l35.9-21.4l36.5,20.3l0.6,41.8l-35.9,21.4l-36.5-20.3L27.4,222.6z M135,158.3
					l35.9-21.4l36.5,20.3L208,199l-35.9,21.4l-36.5-20.3L135,158.3z M242.6,94l35.9-21.4l36.5,20.3l0.6,41.8l-35.9,21.4l-36.5-20.3
					L242.6,94z M350.8,71.5l-35.9,21.4l-36.5-20.3l-0.6-41.7l35.9-21.4l36.4,20.3L350.8,71.5z M243.2,135.8l-35.9,21.4l-36.5-20.3
					l-0.6-41.7l35.9-21.4L242.6,94L243.2,135.8z M135.6,200.1l-35.9,21.4l-36.5-20.3l-0.6-41.7L98.5,138l36.5,20.3L135.6,200.1z
					 M-9.7,160.5l35.9-21.4l36.5,20.3l0.6,41.7l-35.9,21.4L-9,202.3L-9.7,160.5z M97.9,96.2l35.9-21.4l36.5,20.3l0.6,41.7L135,158.3
					L98.5,138L97.9,96.2z M205.5,31.9l35.9-21.4l36.5,20.3l0.6,41.7L242.6,94l-36.5-20.3L205.5,31.9z M313.7,9.4l-35.9,21.4
					l-36.5-20.3l-0.6-41.8l35.9-21.4L313-32.3L313.7,9.4z M206.1,73.7l-35.9,21.4l-36.5-20.3L133.1,33L169,11.6l36.5,20.3
					L206.1,73.7z M98.5,138l-35.9,21.4l-36.5-20.3l-0.6-41.8l35.9-21.4l36.5,20.3L98.5,138z M-46.8,98.4L-11,77l36.5,20.3l0.6,41.8
					l-35.9,21.4l-36.5-20.3L-46.8,98.4z M60.8,34.1l35.9-21.4L133.1,33l0.6,41.8L97.9,96.2L61.4,75.9L60.8,34.1z M168.3-30.2
					l35.9-21.4l36.5,20.3l0.6,41.8l-35.9,21.4L169,11.6L168.3-30.2z M276.5-52.7l-35.9,21.4l-36.5-20.3l-0.6-41.7l35.9-21.4
					l36.4,20.3L276.5-52.7z M169,11.6L133.1,33L96.6,12.7L96-29.1l35.9-21.4l36.5,20.3L169,11.6z M61.4,75.9L25.5,97.3L-11,77
					l-0.6-41.7l35.9-21.4l36.5,20.3L61.4,75.9z M-83.9,36.3l35.9-21.4l36.5,20.3L-11,77l-35.9,21.4l-36.5-20.3L-83.9,36.3z M23.7-28
					l35.9-21.4L96-29.1l0.6,41.7L60.8,34.1L24.3,13.8L23.7-28z M131.2-92.3l35.9-21.4l36.5,20.3l0.6,41.7l-35.9,21.4l-36.5-20.3
					L131.2-92.3z M239.4-114.8l-35.9,21.4l-36.5-20.3l-0.6-41.8l35.9-21.4l36.5,20.4L239.4-114.8z M131.9-50.5L96-29.1L59.5-49.4
					l-0.6-41.8l35.9-21.4l36.5,20.3L131.9-50.5z M24.3,13.8l-35.9,21.4l-36.5-20.3l-0.6-41.8l35.9-21.4L23.7-28L24.3,13.8z"/>
				<path fill="none" stroke="#00BFC4" stroke-miterlimit="10" d="M64.7,284.8l35.9-21.4l36.5,20.3l0.6,41.8l-35.9,21.4l-36.5-20.3
					L64.7,284.8z"/>
				<path fill="none" stroke="#00BFC4" stroke-miterlimit="10" d="M172.1,220.4L208,199l36.5,20.3l0.6,41.7l-35.9,21.4l-36.5-20.3
					L172.1,220.4z"/>
				<path fill="none" stroke="#00BFC4" stroke-miterlimit="10" d="M279.7,156.1l35.9-21.4l36.5,20.3l0.6,41.7l-35.9,21.4l-36.5-20.3
					L279.7,156.1z"/>
				<path fill="none" stroke="#00BFC4" stroke-miterlimit="10" d="M387.9,133.6L352.1,155l-36.5-20.3l-0.6-41.8l35.9-21.4l36.5,20.4
					L387.9,133.6z"/>
				<path fill="none" stroke="#00BFC4" stroke-miterlimit="10" d="M280.3,197.9l-35.9,21.4L208,199l-0.6-41.8l35.9-21.4l36.5,20.3
					L280.3,197.9z"/>
				<path fill="none" stroke="#00BFC4" stroke-miterlimit="10" d="M172.8,262.2l-35.9,21.4l-36.5-20.3l-0.6-41.8l35.9-21.4
					l36.5,20.3L172.8,262.2z"/>
				<path fill="none" stroke="#00BFC4" stroke-miterlimit="10" d="M27.4,222.6l35.9-21.4l36.5,20.3l0.6,41.8l-35.9,21.4l-36.5-20.3
					L27.4,222.6z"/>
				<path fill="none" stroke="#00BFC4" stroke-miterlimit="10" d="M135,158.3l35.9-21.4l36.5,20.3L208,199l-35.9,21.4l-36.5-20.3
					L135,158.3z"/>
				<path fill="none" stroke="#00BFC4" stroke-miterlimit="10" d="M242.6,94l35.9-21.4l36.5,20.3l0.6,41.8l-35.9,21.4l-36.5-20.3
					L242.6,94z"/>
				<path fill="none" stroke="#00BFC4" stroke-miterlimit="10" d="M350.8,71.5l-35.9,21.4l-36.5-20.3l-0.6-41.7l35.9-21.4l36.4,20.3
					L350.8,71.5z"/>
				<path fill="none" stroke="#00BFC4" stroke-miterlimit="10" d="M243.2,135.8l-35.9,21.4l-36.5-20.3l-0.6-41.7l35.9-21.4L242.6,94
					L243.2,135.8z"/>
				<path fill="none" stroke="#00BFC4" stroke-miterlimit="10" d="M135.6,200.1l-35.9,21.4l-36.5-20.3l-0.6-41.7L98.5,138l36.5,20.3
					L135.6,200.1z"/>
				<path fill="none" stroke="#00BFC4" stroke-miterlimit="10" d="M-9.7,160.5l35.9-21.4l36.5,20.3l0.6,41.7l-35.9,21.4L-9,202.3
					L-9.7,160.5z"/>
				<path fill="none" stroke="#00BFC4" stroke-miterlimit="10" d="M97.9,96.2l35.9-21.4l36.5,20.3l0.6,41.7L135,158.3L98.5,138
					L97.9,96.2z"/>
				<path fill="none" stroke="#00BFC4" stroke-miterlimit="10" d="M205.5,31.9l35.9-21.4l36.5,20.3l0.6,41.7L242.6,94l-36.5-20.3
					L205.5,31.9z"/>
				<path fill="none" stroke="#00BFC4" stroke-miterlimit="10" d="M313.7,9.4l-35.9,21.4l-36.5-20.3l-0.6-41.8l35.9-21.4L313-32.3
					L313.7,9.4z"/>
				<path fill="none" stroke="#00BFC4" stroke-miterlimit="10" d="M206.1,73.7l-35.9,21.4l-36.5-20.3L133.1,33L169,11.6l36.5,20.3
					L206.1,73.7z"/>
				<path fill="none" stroke="#00BFC4" stroke-miterlimit="10" d="M98.5,138l-35.9,21.4l-36.5-20.3l-0.6-41.8l35.9-21.4l36.5,20.3
					L98.5,138z"/>
				<path fill="none" stroke="#00BFC4" stroke-miterlimit="10" d="M-46.8,98.4L-11,77l36.5,20.3l0.6,41.8l-35.9,21.4l-36.5-20.3
					L-46.8,98.4z"/>
				<path fill="none" stroke="#00BFC4" stroke-miterlimit="10" d="M60.8,34.1l35.9-21.4L133.1,33l0.6,41.8L97.9,96.2L61.4,75.9
					L60.8,34.1z"/>
				<path fill="none" stroke="#00BFC4" stroke-miterlimit="10" d="M168.3-30.2l35.9-21.4l36.5,20.3l0.6,41.8l-35.9,21.4L169,11.6
					L168.3-30.2z"/>
				<path fill="none" stroke="#00BFC4" stroke-miterlimit="10" d="M276.5-52.7l-35.9,21.4l-36.5-20.3l-0.6-41.7l35.9-21.4l36.4,20.3
					L276.5-52.7z"/>
				<path fill="none" stroke="#00BFC4" stroke-miterlimit="10" d="M169,11.6L133.1,33L96.6,12.7L96-29.1l35.9-21.4l36.5,20.3
					L169,11.6z"/>
				<path fill="none" stroke="#00BFC4" stroke-miterlimit="10" d="M61.4,75.9L25.5,97.3L-11,77l-0.6-41.7l35.9-21.4l36.5,20.3
					L61.4,75.9z"/>
				<path fill="none" stroke="#00BFC4" stroke-miterlimit="10" d="M-83.9,36.3l35.9-21.4l36.5,20.3L-11,77l-35.9,21.4l-36.5-20.3
					L-83.9,36.3z"/>
				<path fill="none" stroke="#00BFC4" stroke-miterlimit="10" d="M23.7-28l35.9-21.4L96-29.1l0.6,41.7L60.8,34.1L24.3,13.8L23.7-28
					z"/>
				<path fill="none" stroke="#00BFC4" stroke-miterlimit="10" d="M131.2-92.3l35.9-21.4l36.5,20.3l0.6,41.7l-35.9,21.4l-36.5-20.3
					L131.2-92.3z"/>
				<path fill="none" stroke="#00BFC4" stroke-miterlimit="10" d="M239.4-114.8l-35.9,21.4l-36.5-20.3l-0.6-41.8l35.9-21.4
					l36.5,20.4L239.4-114.8z"/>
				<path fill="none" stroke="#00BFC4" stroke-miterlimit="10" d="M131.9-50.5L96-29.1L59.5-49.4l-0.6-41.8l35.9-21.4l36.5,20.3
					L131.9-50.5z"/>
				<path fill="none" stroke="#00BFC4" stroke-miterlimit="10" d="M24.3,13.8l-35.9,21.4l-36.5-20.3l-0.6-41.8l35.9-21.4L23.7-28
					L24.3,13.8z"/>
			</g>
		</g>
	</g>
	<g clip-path="url(#SVGID_2_)">
		<g>
			<g id="id3_1_">
				<path fill="none" stroke="#E84DAD" stroke-miterlimit="10" d="M64.7,326.8l35.9-21.4l36.5,20.3l0.6,41.8l-35.9,21.4l-36.5-20.3
					L64.7,326.8z M172.1,262.4L208,241l36.5,20.3l0.6,41.7l-35.9,21.4l-36.5-20.3L172.1,262.4z M279.7,198.1l35.9-21.4l36.5,20.3
					l0.6,41.7l-35.9,21.4l-36.5-20.3L279.7,198.1z M387.9,175.6L352.1,197l-36.5-20.3l-0.6-41.8l35.9-21.4l36.5,20.4L387.9,175.6z
					 M280.3,239.9l-35.9,21.4L208,241l-0.6-41.8l35.9-21.4l36.5,20.3L280.3,239.9z M172.8,304.2l-35.9,21.4l-36.5-20.3l-0.6-41.8
					l35.9-21.4l36.5,20.3L172.8,304.2z M27.4,264.6l35.9-21.4l36.5,20.3l0.6,41.8l-35.9,21.4l-36.5-20.3L27.4,264.6z M135,200.3
					l35.9-21.4l36.5,20.3L208,241l-35.9,21.4l-36.5-20.3L135,200.3z M242.6,136l35.9-21.4l36.5,20.3l0.6,41.8l-35.9,21.4l-36.5-20.3
					L242.6,136z M350.8,113.5l-35.9,21.4l-36.5-20.3l-0.6-41.7l35.9-21.4l36.4,20.3L350.8,113.5z M243.2,177.8l-35.9,21.4
					l-36.5-20.3l-0.6-41.7l35.9-21.4l36.5,20.3L243.2,177.8z M135.6,242.1l-35.9,21.4l-36.5-20.3l-0.6-41.7L98.5,180l36.5,20.3
					L135.6,242.1z M-9.7,202.5l35.9-21.4l36.5,20.3l0.6,41.7l-35.9,21.4L-9,244.3L-9.7,202.5z M97.9,138.2l35.9-21.4l36.5,20.3
					l0.6,41.7L135,200.3L98.5,180L97.9,138.2z M205.5,73.9l35.9-21.4l36.5,20.3l0.6,41.7L242.6,136l-36.5-20.3L205.5,73.9z
					 M313.7,51.4l-35.9,21.4l-36.5-20.3l-0.6-41.8l35.9-21.4L313,9.7L313.7,51.4z M206.1,115.7l-35.9,21.4l-36.5-20.3L133.1,75
					L169,53.6l36.5,20.3L206.1,115.7z M98.5,180l-35.9,21.4l-36.5-20.3l-0.6-41.8l35.9-21.4l36.5,20.3L98.5,180z M-46.8,140.4
					L-11,119l36.5,20.3l0.6,41.8l-35.9,21.4l-36.5-20.3L-46.8,140.4z M60.8,76.1l35.9-21.4L133.1,75l0.6,41.8l-35.9,21.4l-36.5-20.3
					L60.8,76.1z M168.3,11.8l35.9-21.4l36.5,20.3l0.6,41.8l-35.9,21.4L169,53.6L168.3,11.8z M276.5-10.7l-35.9,21.4L204.2-9.6
					l-0.6-41.7l35.9-21.4l36.4,20.3L276.5-10.7z M169,53.6L133.1,75L96.6,54.7L96,12.9l35.9-21.4l36.5,20.3L169,53.6z M61.4,117.9
					l-35.9,21.4L-11,119l-0.6-41.7l35.9-21.4l36.5,20.3L61.4,117.9z M-83.9,78.3l35.9-21.4l36.5,20.3L-11,119l-35.9,21.4l-36.5-20.3
					L-83.9,78.3z M23.7,14L59.5-7.4L96,12.9l0.6,41.7L60.8,76.1L24.3,55.8L23.7,14z M131.2-50.3l35.9-21.4l36.5,20.3l0.6,41.7
					l-35.9,21.4L131.9-8.5L131.2-50.3z M239.4-72.8l-35.9,21.4l-36.5-20.3l-0.6-41.8l35.9-21.4l36.5,20.4L239.4-72.8z M131.9-8.5
					L96,12.9L59.5-7.4l-0.6-41.8l35.9-21.4l36.5,20.3L131.9-8.5z M24.3,55.8l-35.9,21.4l-36.5-20.3l-0.6-41.8l35.9-21.4L23.7,14
					L24.3,55.8z"/>
				<path fill="none" stroke="#E84DAD" stroke-miterlimit="10" d="M64.7,326.8l35.9-21.4l36.5,20.3l0.6,41.8l-35.9,21.4l-36.5-20.3
					L64.7,326.8z"/>
				<path fill="none" stroke="#E84DAD" stroke-miterlimit="10" d="M172.1,262.4L208,241l36.5,20.3l0.6,41.7l-35.9,21.4l-36.5-20.3
					L172.1,262.4z"/>
				<path fill="none" stroke="#E84DAD" stroke-miterlimit="10" d="M279.7,198.1l35.9-21.4l36.5,20.3l0.6,41.7l-35.9,21.4l-36.5-20.3
					L279.7,198.1z"/>
				<path fill="none" stroke="#E84DAD" stroke-miterlimit="10" d="M387.9,175.6L352.1,197l-36.5-20.3l-0.6-41.8l35.9-21.4l36.5,20.4
					L387.9,175.6z"/>
				<path fill="none" stroke="#E84DAD" stroke-miterlimit="10" d="M280.3,239.9l-35.9,21.4L208,241l-0.6-41.8l35.9-21.4l36.5,20.3
					L280.3,239.9z"/>
				<path fill="none" stroke="#E84DAD" stroke-miterlimit="10" d="M172.8,304.2l-35.9,21.4l-36.5-20.3l-0.6-41.8l35.9-21.4
					l36.5,20.3L172.8,304.2z"/>
				<path fill="none" stroke="#E84DAD" stroke-miterlimit="10" d="M27.4,264.6l35.9-21.4l36.5,20.3l0.6,41.8l-35.9,21.4l-36.5-20.3
					L27.4,264.6z"/>
				<path fill="none" stroke="#E84DAD" stroke-miterlimit="10" d="M135,200.3l35.9-21.4l36.5,20.3L208,241l-35.9,21.4l-36.5-20.3
					L135,200.3z"/>
				<path fill="none" stroke="#E84DAD" stroke-miterlimit="10" d="M242.6,136l35.9-21.4l36.5,20.3l0.6,41.8l-35.9,21.4l-36.5-20.3
					L242.6,136z"/>
				<path fill="none" stroke="#E84DAD" stroke-miterlimit="10" d="M350.8,113.5l-35.9,21.4l-36.5-20.3l-0.6-41.7l35.9-21.4
					l36.4,20.3L350.8,113.5z"/>
				<path fill="none" stroke="#E84DAD" stroke-miterlimit="10" d="M243.2,177.8l-35.9,21.4l-36.5-20.3l-0.6-41.7l35.9-21.4
					l36.5,20.3L243.2,177.8z"/>
				<path fill="none" stroke="#E84DAD" stroke-miterlimit="10" d="M135.6,242.1l-35.9,21.4l-36.5-20.3l-0.6-41.7L98.5,180l36.5,20.3
					L135.6,242.1z"/>
				<path fill="none" stroke="#E84DAD" stroke-miterlimit="10" d="M-9.7,202.5l35.9-21.4l36.5,20.3l0.6,41.7l-35.9,21.4L-9,244.3
					L-9.7,202.5z"/>
				<path fill="none" stroke="#E84DAD" stroke-miterlimit="10" d="M97.9,138.2l35.9-21.4l36.5,20.3l0.6,41.7L135,200.3L98.5,180
					L97.9,138.2z"/>
				<path fill="none" stroke="#E84DAD" stroke-miterlimit="10" d="M205.5,73.9l35.9-21.4l36.5,20.3l0.6,41.7L242.6,136l-36.5-20.3
					L205.5,73.9z"/>
				<path fill="none" stroke="#E84DAD" stroke-miterlimit="10" d="M313.7,51.4l-35.9,21.4l-36.5-20.3l-0.6-41.8l35.9-21.4L313,9.7
					L313.7,51.4z"/>
				<path fill="none" stroke="#E84DAD" stroke-miterlimit="10" d="M206.1,115.7l-35.9,21.4l-36.5-20.3L133.1,75L169,53.6l36.5,20.3
					L206.1,115.7z"/>
				<path fill="none" stroke="#E84DAD" stroke-miterlimit="10" d="M98.5,180l-35.9,21.4l-36.5-20.3l-0.6-41.8l35.9-21.4l36.5,20.3
					L98.5,180z"/>
				<path fill="none" stroke="#E84DAD" stroke-miterlimit="10" d="M-46.8,140.4L-11,119l36.5,20.3l0.6,41.8l-35.9,21.4l-36.5-20.3
					L-46.8,140.4z"/>
				<path fill="none" stroke="#E84DAD" stroke-miterlimit="10" d="M60.8,76.1l35.9-21.4L133.1,75l0.6,41.8l-35.9,21.4l-36.5-20.3
					L60.8,76.1z"/>
				<path fill="none" stroke="#E84DAD" stroke-miterlimit="10" d="M168.3,11.8l35.9-21.4l36.5,20.3l0.6,41.8l-35.9,21.4L169,53.6
					L168.3,11.8z"/>
				<path fill="none" stroke="#E84DAD" stroke-miterlimit="10" d="M276.5-10.7l-35.9,21.4L204.2-9.6l-0.6-41.7l35.9-21.4l36.4,20.3
					L276.5-10.7z"/>
				<path fill="none" stroke="#E84DAD" stroke-miterlimit="10" d="M169,53.6L133.1,75L96.6,54.7L96,12.9l35.9-21.4l36.5,20.3
					L169,53.6z"/>
				<path fill="none" stroke="#E84DAD" stroke-miterlimit="10" d="M61.4,117.9l-35.9,21.4L-11,119l-0.6-41.7l35.9-21.4l36.5,20.3
					L61.4,117.9z"/>
				<path fill="none" stroke="#E84DAD" stroke-miterlimit="10" d="M-83.9,78.3l35.9-21.4l36.5,20.3L-11,119l-35.9,21.4l-36.5-20.3
					L-83.9,78.3z"/>
				<path fill="none" stroke="#E84DAD" stroke-miterlimit="10" d="M23.7,14L59.5-7.4L96,12.9l0.6,41.7L60.8,76.1L24.3,55.8L23.7,14z
					"/>
				<path fill="none" stroke="#E84DAD" stroke-miterlimit="10" d="M131.2-50.3l35.9-21.4l36.5,20.3l0.6,41.7l-35.9,21.4L131.9-8.5
					L131.2-50.3z"/>
				<path fill="none" stroke="#E84DAD" stroke-miterlimit="10" d="M239.4-72.8l-35.9,21.4l-36.5-20.3l-0.6-41.8l35.9-21.4l36.5,20.4
					L239.4-72.8z"/>
				<path fill="none" stroke="#E84DAD" stroke-miterlimit="10" d="M131.9-8.5L96,12.9L59.5-7.4l-0.6-41.8l35.9-21.4l36.5,20.3
					L131.9-8.5z"/>
				<path fill="none" stroke="#E84DAD" stroke-miterlimit="10" d="M24.3,55.8l-35.9,21.4l-36.5-20.3l-0.6-41.8l35.9-21.4L23.7,14
					L24.3,55.8z"/>
			</g>
		</g>
	</g>
</g>
</svg>
